{"title":"Unthinkable.2010.1080p.BluRay.DTS.x264-LTT","uid":5611366,"size":6283078138,"categoryP":"video","categoryS":"hd___movies","magnet":"?xt=urn:btih:c9e44c3fe88e1aa7d1e78e26eb56c64979b65ae0&amp;dn=Unthinkable.2010.1080p.BluRay.DTS.x264-LTT&amp;tr=udp%3A%2F%2Ftracker.openbittorrent.com%3A80&amp;tr=udp%3A%2F%2Fopen.demonii.com%3A1337&amp;tr=udp%3A%2F%2Ftracker.coppersurfer.tk%3A6969&amp;tr=udp%3A%2F%2Fexodus.desync.com%3A6969","seeders":1,"leechers":0,"uploader":"Ltt_01","files":2,"time":1275884187,"description":"Unthinkable.2010.1080p.BluRay.DTS.x264.mkv\n******************************************\n\nTiTLE......  Unthinkable\nYEAR.......  2010\nGENRE......  Drama | Thriller\niMDB RATE..  User Rating: 7.3/10 (4,148 votes)\niMDB URL... &lt;a href=&quot; http://www.imdb.com/title/tt0914863/&quot; rel=&quot;nofollow&quot; target=&quot;_NEW&quot;&gt; http://www.imdb.com/title/tt0914863/&lt;/a&gt;\n*************************************************\n\nVideo\nDuration                         : 1h 37mn\nOverall bit rate                 : 8 625 Kbps\nWidth                            : 1 920 pixels\nHeight                           : 1 032 pixels\nDisplay aspect ratio             : 1.860\nFrame rate                       : 23.976 fps\nStream size                      : 4.71 GiB (80%)\n\nAudio\nFormat                           : DTS\nBit rate                         : 1 510 Kbps\nChannel(s)                       : 6 channels\nChannel positions                : Front: L C R, Surround: L R, LFE\nSampling rate                    : 48.0 KHz\nStream size                      : 1.02 GiB (18%)\nLanguage                         : English\n\nSubtitles: English, Dutch\n*************************\n\n\n","torrent":{"xt":"urn:btih:c9e44c3fe88e1aa7d1e78e26eb56c64979b65ae0","amp;dn":"Unthinkable.2010.1080p.BluRay.DTS.x264-LTT","amp;tr":["udp%3A%2F%2Ftracker.openbittorrent.com%3A80","udp%3A%2F%2Fopen.demonii.com%3A1337","udp%3A%2F%2Ftracker.coppersurfer.tk%3A6969","udp%3A%2F%2Fexodus.desync.com%3A6969"],"infoHash":"c9e44c3fe88e1aa7d1e78e26eb56c64979b65ae0","infoHashBuffer":{"type":"Buffer","data":[201,228,76,63,232,142,26,167,209,231,142,38,235,86,198,73,121,182,90,224]},"announce":[],"urlList":[]}}